<svg width="995" height="730" viewBox="0 0 995 730" fill="none" xmlns="http://www.w3.org/2000/svg">
<g clip-path="url(#clip0_1_64)">
<g filter="url(#filter0_f_1_64)">
<path d="M483.427 528.426C415.272 433.236 437.188 300.818 532.379 232.662L603.966 181.406C699.156 113.251 831.574 135.167 899.73 230.358L950.366 301.079C1018.52 396.27 996.605 528.688 901.414 596.843L829.827 648.099C734.637 716.255 602.219 694.338 534.063 599.148L483.427 528.426Z" fill="url(#paint0_radial_1_64)"/>
</g>
<g style="mix-blend-mode:overlay" filter="url(#filter1_f_1_64)">
<path d="M920.573 562.084C871.92 663.095 750.213 705.357 649.201 656.704C548.19 608.051 505.364 486.541 554.016 385.529C602.669 284.518 724.377 242.256 825.389 290.909C926.4 339.562 969.226 461.073 920.573 562.084Z" fill="url(#paint1_radial_1_64)"/>
</g>
<g filter="url(#filter2_f_1_64)">
<path d="M650.528 393.188C613.873 469.288 522.18 501.127 446.08 464.473C369.979 427.819 337.714 336.274 374.369 260.174C411.023 184.073 502.716 152.234 578.817 188.888C654.918 225.543 687.182 317.087 650.528 393.188Z" fill="url(#paint2_radial_1_64)"/>
<path d="M650.528 393.188C613.873 469.288 522.18 501.127 446.08 464.473C369.979 427.819 337.714 336.274 374.369 260.174C411.023 184.073 502.716 152.234 578.817 188.888C654.918 225.543 687.182 317.087 650.528 393.188Z" stroke="#E20000" stroke-width="25"/>
</g>
</g>
<defs>
<filter id="filter0_f_1_64" x="335.498" y="33.4768" width="762.797" height="762.552" filterUnits="userSpaceOnUse" color-interpolation-filters="sRGB">
<feFlood flood-opacity="0" result="BackgroundImageFix"/>
<feBlend mode="normal" in="SourceGraphic" in2="BackgroundImageFix" result="shape"/>
<feGaussianBlur stdDeviation="54.1446" result="effect1_foregroundBlur_1_64"/>
</filter>
<filter id="filter1_f_1_64" x="427.942" y="164.726" width="618.706" height="618.161" filterUnits="userSpaceOnUse" color-interpolation-filters="sRGB">
<feFlood flood-opacity="0" result="BackgroundImageFix"/>
<feBlend mode="normal" in="SourceGraphic" in2="BackgroundImageFix" result="shape"/>
<feGaussianBlur stdDeviation="52.9955" result="effect1_foregroundBlur_1_64"/>
</filter>
<filter id="filter2_f_1_64" x="20.2117" y="-165.348" width="984.473" height="984.058" filterUnits="userSpaceOnUse" color-interpolation-filters="sRGB">
<feFlood flood-opacity="0" result="BackgroundImageFix"/>
<feBlend mode="normal" in="SourceGraphic" in2="BackgroundImageFix" result="shape"/>
<feGaussianBlur stdDeviation="163.261" result="effect1_foregroundBlur_1_64"/>
</filter>
<radialGradient id="paint0_radial_1_64" cx="0" cy="0" r="1" gradientUnits="userSpaceOnUse" gradientTransform="translate(633.629 375.879) rotate(46.7475) scale(338.568 339.273)">
<stop stop-color="#FFD84B"/>
<stop offset="1" stop-color="#FFD84B" stop-opacity="0"/>
</radialGradient>
<radialGradient id="paint1_radial_1_64" cx="0" cy="0" r="1" gradientUnits="userSpaceOnUse" gradientTransform="translate(822.286 483.15) rotate(-89.0752) scale(192.266 192.667)">
<stop stop-color="#9207FF"/>
<stop offset="1" stop-color="#FF9898"/>
</radialGradient>
<radialGradient id="paint2_radial_1_64" cx="0" cy="0" r="1" gradientUnits="userSpaceOnUse" gradientTransform="translate(572.019 358.595) rotate(-64.8812) scale(665.878 667.266)">
<stop stop-color="#5AE9FD"/>
<stop offset="1" stop-color="#5AE9FD" stop-opacity="0"/>
</radialGradient>
<clipPath id="clip0_1_64">
<rect width="729.199" height="994.445" fill="white" transform="matrix(0 -1 1 0 0.264648 729.199)"/>
</clipPath>
</defs>
</svg>
