<svg width="434" height="381" viewBox="0 0 434 381" fill="none" xmlns="http://www.w3.org/2000/svg">
<path d="M182.434 313.944C236.045 332.964 294.925 304.921 313.944 251.31C332.964 197.698 304.921 138.819 251.31 119.8C197.698 100.78 138.819 128.822 119.8 182.434C100.78 236.045 128.822 294.925 182.434 313.944ZM307.996 249.2C290.142 299.526 234.871 325.851 184.544 307.996C134.217 290.142 107.893 234.871 125.747 184.544C143.602 134.217 198.873 107.893 249.2 125.747C299.527 143.601 325.851 198.873 307.996 249.2Z" fill="white" stroke="black"/>
<circle cx="216.872" cy="216.872" r="99.8446" transform="rotate(19.533 216.872 216.872)" fill="#0123FF" stroke="white" stroke-width="5.31088"/>
<path d="M236.291 277.295C235.31 280.06 218.325 276.557 198.352 269.471C178.38 262.386 162.985 254.401 163.965 251.637C164.946 248.872 181.932 252.375 201.904 259.461C221.876 266.546 237.272 274.531 236.291 277.295Z" fill="#001BC7"/>
<g clip-path="url(#clip0_82_115)">
<rect x="186.639" y="203.627" width="7.34356" height="31.3941" rx="3.67178" transform="rotate(19.533 186.639 203.627)" fill="white" stroke="black" stroke-width="0.796632"/>
<rect x="242.085" y="223.297" width="7.34356" height="31.3941" rx="3.67178" transform="rotate(19.533 242.085 223.297)" fill="white" stroke="black" stroke-width="0.796632"/>
<mask id="path-6-inside-1_82_115" fill="white">
<path fill-rule="evenodd" clip-rule="evenodd" d="M213.04 214.337L205.368 211.616L192.272 248.53C191.471 247.969 190.582 247.506 189.616 247.164C183.838 245.114 177.493 248.136 175.443 253.914C175.432 253.945 175.421 253.976 175.411 254.007L196.333 261.429C196.335 261.424 196.337 261.419 196.338 261.414L196.339 261.414L213.04 214.337Z"/>
</mask>
<path fill-rule="evenodd" clip-rule="evenodd" d="M213.04 214.337L205.368 211.616L192.272 248.53C191.471 247.969 190.582 247.506 189.616 247.164C183.838 245.114 177.493 248.136 175.443 253.914C175.432 253.945 175.421 253.976 175.411 254.007L196.333 261.429C196.335 261.424 196.337 261.419 196.338 261.414L196.339 261.414L213.04 214.337Z" fill="white"/>
<path d="M205.368 211.616L205.634 210.865L204.884 210.598L204.617 211.349L205.368 211.616ZM213.04 214.337L213.791 214.604L214.057 213.853L213.306 213.586L213.04 214.337ZM192.272 248.53L191.816 249.182L192.673 249.782L193.023 248.796L192.272 248.53ZM175.411 254.007L174.658 253.747L174.4 254.493L175.144 254.757L175.411 254.007ZM196.333 261.429L196.066 262.18L196.811 262.444L197.081 261.702L196.333 261.429ZM196.338 261.414L196.605 260.663L195.859 260.398L195.59 261.142L196.338 261.414ZM196.339 261.414L196.072 262.164L196.823 262.431L197.089 261.68L196.339 261.414ZM205.102 212.366L212.773 215.088L213.306 213.586L205.634 210.865L205.102 212.366ZM193.023 248.796L206.119 211.882L204.617 211.349L191.522 248.263L193.023 248.796ZM192.729 247.877C191.869 247.276 190.917 246.78 189.882 246.413L189.35 247.914C190.248 248.233 191.073 248.663 191.816 249.182L192.729 247.877ZM189.882 246.413C183.69 244.216 176.889 247.455 174.692 253.647L176.194 254.18C178.097 248.817 183.987 246.012 189.35 247.914L189.882 246.413ZM174.692 253.647C174.681 253.68 174.669 253.714 174.658 253.747L176.164 254.266C176.174 254.238 176.184 254.209 176.194 254.18L174.692 253.647ZM175.144 254.757L196.066 262.18L196.599 260.678L175.677 253.256L175.144 254.757ZM197.081 261.702C197.083 261.696 197.085 261.691 197.087 261.685L195.59 261.142C195.588 261.147 195.586 261.151 195.584 261.156L197.081 261.702ZM196.605 260.663L196.605 260.663L196.072 262.164L196.072 262.164L196.605 260.663ZM212.289 214.071L195.588 261.147L197.089 261.68L213.791 214.604L212.289 214.071Z" fill="black" mask="url(#path-6-inside-1_82_115)"/>
<mask id="path-8-inside-2_82_115" fill="white">
<path fill-rule="evenodd" clip-rule="evenodd" d="M229.429 220.152L221.758 217.43L208.662 254.344C207.861 253.784 206.972 253.321 206.006 252.978C200.228 250.928 193.882 253.951 191.833 259.728C191.822 259.759 191.811 259.79 191.8 259.821L212.722 267.243C212.724 267.238 212.726 267.233 212.728 267.228L212.728 267.228L229.429 220.152Z"/>
</mask>
<path fill-rule="evenodd" clip-rule="evenodd" d="M229.429 220.152L221.758 217.43L208.662 254.344C207.861 253.784 206.972 253.321 206.006 252.978C200.228 250.928 193.882 253.951 191.833 259.728C191.822 259.759 191.811 259.79 191.8 259.821L212.722 267.243C212.724 267.238 212.726 267.233 212.728 267.228L212.728 267.228L229.429 220.152Z" fill="white"/>
<path d="M221.758 217.43L222.024 216.679L221.273 216.413L221.007 217.164L221.758 217.43ZM229.429 220.152L230.18 220.418L230.446 219.667L229.696 219.401L229.429 220.152ZM208.662 254.344L208.205 254.997L209.063 255.596L209.413 254.61L208.662 254.344ZM191.8 259.821L191.047 259.561L190.79 260.308L191.534 260.572L191.8 259.821ZM212.722 267.243L212.456 267.994L213.2 268.258L213.471 267.516L212.722 267.243ZM212.728 267.228L212.994 266.477L212.249 266.213L211.979 266.956L212.728 267.228ZM212.728 267.228L212.462 267.979L213.213 268.245L213.479 267.495L212.728 267.228ZM221.491 218.181L229.163 220.902L229.696 219.401L222.024 216.679L221.491 218.181ZM209.413 254.61L222.508 217.696L221.007 217.164L207.911 254.078L209.413 254.61ZM209.118 253.691C208.259 253.09 207.306 252.594 206.272 252.227L205.739 253.729C206.637 254.048 207.462 254.477 208.205 254.997L209.118 253.691ZM206.272 252.227C200.08 250.031 193.279 253.27 191.082 259.462L192.584 259.995C194.486 254.632 200.376 251.826 205.739 253.729L206.272 252.227ZM191.082 259.462C191.07 259.495 191.059 259.528 191.047 259.561L192.553 260.081C192.563 260.052 192.573 260.023 192.584 259.995L191.082 259.462ZM191.534 260.572L212.456 267.994L212.989 266.493L192.067 259.07L191.534 260.572ZM213.471 267.516C213.473 267.511 213.475 267.505 213.477 267.5L211.979 266.956C211.977 266.961 211.976 266.966 211.974 266.971L213.471 267.516ZM212.995 266.477L212.994 266.477L212.462 267.979L212.462 267.979L212.995 266.477ZM228.679 219.885L211.977 266.962L213.479 267.495L230.18 220.418L228.679 219.885Z" fill="black" mask="url(#path-8-inside-2_82_115)"/>
<g clip-path="url(#clip1_82_115)">
<rect x="181.895" y="169.328" width="97.8673" height="43.291" rx="21.6455" transform="rotate(19.533 181.895 169.328)" fill="#04EE6A"/>
<rect x="239.894" y="190.101" width="43.0181" height="25.2267" rx="10.8347" transform="rotate(109.533 239.894 190.101)" stroke="black" stroke-width="0.531088"/>
<rect x="249.936" y="191.973" width="45.9391" height="44.3458" rx="21.38" transform="rotate(109.533 249.936 191.973)" stroke="black" stroke-width="0.531088"/>
<rect x="258.413" y="196.671" width="42.7526" height="63.465" rx="20.8249" transform="rotate(109.533 258.413 196.671)" stroke="black" stroke-width="0.531088"/>
<rect x="266.922" y="199.69" width="42.7526" height="81.7876" rx="21.3763" transform="rotate(109.533 266.922 199.69)" stroke="black" stroke-width="0.531088"/>
<rect x="262.278" y="234.664" width="97.3362" height="26.1095" rx="13.0548" transform="rotate(-160.467 262.278 234.664)" stroke="black" stroke-width="0.531088"/>
<rect x="182.137" y="169.837" width="97.0707" height="42.4944" rx="21.2472" transform="rotate(19.533 182.137 169.837)" stroke="black" stroke-width="0.796632"/>
<line x1="223.98" y1="184.847" x2="209.691" y2="225.124" stroke="black" stroke-width="0.531088"/>
<line x1="231.477" y1="187.507" x2="217.189" y2="227.784" stroke="black" stroke-width="0.531088"/>
<line x1="267.518" y1="219.027" x2="176.329" y2="186.676" stroke="black" stroke-width="0.531088"/>
<line x1="264.858" y1="226.525" x2="173.67" y2="194.174" stroke="black" stroke-width="0.531088"/>
</g>
<g clip-path="url(#clip2_82_115)">
<path d="M216.535 181.715C214.923 186.258 212.39 189.97 209.617 192.303C206.836 194.643 203.88 195.55 201.372 194.66C198.864 193.77 197.14 191.204 196.456 187.634C195.774 184.075 196.146 179.597 197.757 175.054C199.369 170.51 201.903 166.799 204.675 164.466C207.457 162.125 210.412 161.219 212.92 162.109C215.428 162.998 217.152 165.565 217.836 169.135C218.519 172.694 218.146 177.172 216.535 181.715Z" fill="white" stroke="black" stroke-width="0.796632"/>
<path fill-rule="evenodd" clip-rule="evenodd" d="M203.403 188.933C206.581 190.06 210.833 186.251 212.899 180.425C214.966 174.6 214.066 168.963 210.888 167.836C208.484 166.983 205.465 168.955 203.243 172.489L204.358 178.524L201.062 177.355C199.437 182.808 200.41 187.871 203.403 188.933Z" fill="#000B1F"/>
<mask id="path-23-inside-3_82_115" fill="white">
<path fill-rule="evenodd" clip-rule="evenodd" d="M212.532 189.811C209.092 194.115 204.792 196.296 201.209 195.025C197.635 193.757 195.671 189.373 195.703 183.884C198.643 182.821 201.985 182.737 205.198 183.877C208.388 185.008 210.917 187.158 212.532 189.811Z"/>
</mask>
<path fill-rule="evenodd" clip-rule="evenodd" d="M212.532 189.811C209.092 194.115 204.792 196.296 201.209 195.025C197.635 193.757 195.671 189.373 195.703 183.884C198.643 182.821 201.985 182.737 205.198 183.877C208.388 185.008 210.917 187.158 212.532 189.811Z" fill="#FFAEAA"/>
<path d="M212.532 189.811L213.154 190.308L213.502 189.873L213.212 189.397L212.532 189.811ZM195.703 183.884L195.432 183.135L194.909 183.324L194.906 183.879L195.703 183.884ZM211.909 189.314C208.533 193.539 204.561 195.369 201.475 194.274L200.942 195.775C205.023 197.223 209.651 194.692 213.154 190.308L211.909 189.314ZM201.475 194.274C198.397 193.182 196.468 189.276 196.499 183.888L194.906 183.879C194.874 189.471 196.872 194.331 200.942 195.775L201.475 194.274ZM195.974 184.633C198.745 183.631 201.897 183.551 204.931 184.627L205.464 183.126C202.073 181.923 198.541 182.01 195.432 183.135L195.974 184.633ZM204.931 184.627C207.945 185.696 210.33 187.725 211.851 190.225L213.212 189.397C211.505 186.591 208.831 184.32 205.464 183.126L204.931 184.627Z" fill="black" mask="url(#path-23-inside-3_82_115)"/>
</g>
<g clip-path="url(#clip3_82_115)">
<path d="M233.099 187.591C231.487 192.135 228.954 195.846 226.181 198.179C223.4 200.52 220.444 201.426 217.936 200.536C215.428 199.646 213.704 197.08 213.02 193.51C212.338 189.951 212.71 185.473 214.321 180.93C215.933 176.387 218.467 172.675 221.239 170.342C224.021 168.002 226.976 167.095 229.484 167.985C231.992 168.875 233.716 171.441 234.4 175.011C235.082 178.57 234.71 183.048 233.099 187.591Z" fill="white" stroke="black" stroke-width="0.796632"/>
<path fill-rule="evenodd" clip-rule="evenodd" d="M219.967 194.809C223.145 195.936 227.397 192.128 229.464 186.302C231.53 180.476 230.63 174.839 227.452 173.712C225.048 172.859 222.029 174.831 219.807 178.365L220.922 184.4L217.626 183.231C216.001 188.684 216.974 193.747 219.967 194.809Z" fill="#000B1F"/>
<mask id="path-27-inside-4_82_115" fill="white">
<path fill-rule="evenodd" clip-rule="evenodd" d="M229.096 195.687C225.656 199.992 221.356 202.172 217.773 200.901C214.199 199.633 212.235 195.25 212.267 189.76C215.207 188.697 218.549 188.613 221.762 189.753C224.952 190.885 227.481 193.034 229.096 195.687Z"/>
</mask>
<path fill-rule="evenodd" clip-rule="evenodd" d="M229.096 195.687C225.656 199.992 221.356 202.172 217.773 200.901C214.199 199.633 212.235 195.25 212.267 189.76C215.207 188.697 218.549 188.613 221.762 189.753C224.952 190.885 227.481 193.034 229.096 195.687Z" fill="#FFAEAA"/>
<path d="M229.096 195.687L229.718 196.184L230.066 195.749L229.776 195.273L229.096 195.687ZM212.267 189.76L211.996 189.011L211.473 189.2L211.47 189.756L212.267 189.76ZM228.473 195.19C225.097 199.415 221.125 201.245 218.039 200.15L217.506 201.652C221.587 203.1 226.215 200.568 229.718 196.184L228.473 195.19ZM218.039 200.15C214.961 199.058 213.032 195.152 213.063 189.765L211.47 189.756C211.438 195.347 213.436 200.208 217.506 201.652L218.039 200.15ZM212.537 190.509C215.309 189.507 218.461 189.427 221.495 190.504L222.028 189.002C218.637 187.799 215.105 187.887 211.996 189.011L212.537 190.509ZM221.495 190.504C224.509 191.573 226.894 193.601 228.415 196.101L229.776 195.273C228.069 192.467 225.395 190.197 222.028 189.002L221.495 190.504Z" fill="black" mask="url(#path-27-inside-4_82_115)"/>
</g>
<rect x="210.836" y="156.36" width="12.5237" height="3.82848" rx="1.91424" transform="rotate(34.533 210.836 156.36)" fill="#04EE6A" stroke="black" stroke-width="0.796632"/>
<rect x="-0.42855" y="0.36559" width="12.5237" height="3.82848" rx="1.91424" transform="matrix(-0.996872 -0.0790326 -0.0790326 0.996872 234.155 164.376)" fill="#04EE6A" stroke="black" stroke-width="0.796632"/>
</g>
<g clip-path="url(#clip4_82_115)">
<path d="M151.794 194.685C151.332 195.293 150.668 195.715 149.922 195.875C149.117 195.967 148.302 195.837 147.566 195.5C147.373 195.43 147.187 195.345 147.008 195.246L146.726 195.927L150.632 197.763L149.034 201.711L143.774 199.579L145.52 195.275C147.413 195.301 148.886 194.051 149.921 191.499C150.271 190.745 150.479 189.933 150.535 189.104C150.534 188.55 150.342 188.2 149.976 188.046C149.844 187.985 149.699 187.961 149.554 187.975C149.41 187.989 149.272 188.042 149.154 188.127C148.82 188.397 148.532 188.72 148.303 189.084L145.302 193.729C144.777 194.58 144.166 195.375 143.48 196.103C142.88 196.71 142.132 197.149 141.311 197.379C140.363 197.604 139.366 197.499 138.486 197.081C136.871 196.428 135.902 195.375 135.59 193.951C135.279 192.527 135.519 190.809 136.325 188.825C137.067 187 137.877 185.814 138.756 185.269C139.64 184.717 140.71 184.708 141.995 185.23C142.216 185.314 142.431 185.411 142.64 185.522L142.917 184.835L139.048 183.039L140.657 179.065L145.916 181.197L144.21 185.408C143.298 185.405 142.417 185.733 141.727 186.329C140.889 187.062 140.248 187.994 139.862 189.039C139.585 189.62 139.431 190.253 139.41 190.897C139.409 191.084 139.465 191.267 139.569 191.422C139.674 191.577 139.823 191.697 139.996 191.766C140.143 191.831 140.304 191.856 140.464 191.839C140.623 191.822 140.776 191.762 140.905 191.667C141.281 191.359 141.596 190.983 141.833 190.558L144.734 185.978C145.246 185.181 145.83 184.432 146.476 183.74C147.053 183.128 147.784 182.684 148.592 182.454C149.549 182.23 150.554 182.337 151.443 182.757C153.103 183.421 154.084 184.508 154.388 186.017C154.675 187.514 154.405 189.344 153.513 191.556C153.109 192.644 152.541 193.664 151.829 194.58L151.794 194.685Z" fill="white"/>
<path d="M157.463 176.51C157.576 176.37 157.567 176.268 157.441 176.163L150.71 170.799L149.229 172.652C149.183 172.698 149.155 172.76 149.153 172.826C149.151 172.891 149.173 172.955 149.217 173.004L151.376 175.05L148.763 178.319L143.437 174.048L156.012 158.26L161.366 162.536L158.753 165.805L156.281 164.152C156.155 164.079 156.039 164.109 155.924 164.26L154.453 166.12L161.166 171.496C161.296 171.603 161.398 171.588 161.507 171.446L163.214 169.313L166.082 171.607L158.594 180.977L155.726 178.683L157.463 176.51Z" fill="white"/>
<path d="M170.276 165.14C168.152 164.884 166.304 163.58 164.698 161.223C163.092 158.866 162.547 156.675 163.106 154.619C163.666 152.564 165.247 150.613 167.924 148.785C170.6 146.956 172.947 146.144 175.078 146.39C177.209 146.637 179.036 147.937 180.643 150.289C182.249 152.641 182.787 154.842 182.258 156.913C181.729 158.985 180.126 160.966 177.454 162.767C174.782 164.568 172.385 165.383 170.262 165.121L170.276 165.14ZM176.996 157.196C177.022 156.237 176.574 155.088 175.675 153.764C174.776 152.441 173.87 151.654 172.987 151.331C172.104 151.007 171.129 151.233 170.076 151.954C169.024 152.675 168.434 153.534 168.375 154.488C168.316 155.441 168.746 156.57 169.65 157.894C170.555 159.218 171.45 160.031 172.369 160.339C173.289 160.646 174.279 160.429 175.359 159.674C176.44 158.919 176.944 158.106 176.971 157.147L176.996 157.196Z" fill="white"/>
<path d="M187.928 152.025C188.093 151.958 188.134 151.863 188.072 151.709L184.884 143.944C184.821 143.796 184.726 143.759 184.561 143.826L182.856 144.518L181.47 141.103L192.947 136.441C195.255 135.493 197.109 135.168 198.508 135.465C199.897 135.763 200.935 136.785 201.625 138.442C202.314 140.1 202.251 141.546 201.46 142.705C200.669 143.864 199.112 144.914 196.791 145.872L192.811 147.492L193.606 149.433C193.668 149.587 193.763 149.623 193.928 149.556L196.242 148.609L197.628 152.023L187.588 156.112L186.203 152.698L187.928 152.025ZM194.915 143.496C195.539 143.298 196.083 142.905 196.469 142.375C196.599 142.141 196.67 141.879 196.676 141.611C196.682 141.343 196.622 141.078 196.501 140.839C196.428 140.59 196.29 140.365 196.102 140.187C195.914 140.009 195.682 139.884 195.429 139.825C194.785 139.758 194.136 139.875 193.555 140.161L190.365 141.46L191.735 144.818L194.924 143.519L194.915 143.496Z" fill="white"/>
<path d="M215.105 146.211C215.282 146.243 215.371 146.175 215.39 146.007L216.438 137.69C216.467 137.529 216.394 137.444 216.209 137.422L214.379 137.197L214.84 133.55L225.126 134.827L224.663 138.489L222.807 138.253C222.63 138.221 222.539 138.294 222.521 138.457L222.212 140.911L228.788 141.738L229.092 139.283C229.121 139.121 229.047 139.036 228.868 139.016L227.011 138.785L227.469 135.155L237.755 136.431L237.295 140.077L235.439 139.841C235.262 139.81 235.171 139.882 235.153 140.045L234.104 148.367C234.076 148.528 234.155 148.609 234.334 148.63L236.19 148.866L235.73 152.512L225.443 151.236L225.899 147.589L227.756 147.819C227.938 147.852 228.022 147.784 228.045 147.622L228.392 144.864L221.817 144.032L221.47 146.79C221.441 146.956 221.515 147.036 221.699 147.058L223.555 147.294L223.095 150.94L212.808 149.664L213.268 146.023L215.105 146.211Z" fill="white"/>
<path d="M240.436 147.987L243.138 142.469C243.209 142.321 243.182 142.222 243.008 142.141L241.313 141.313L242.929 138.016L252.237 142.581L250.627 145.878L248.945 145.069C248.783 144.985 248.682 145.023 248.612 145.165L245.996 150.539C245.5 151.558 245.434 152.394 245.81 153.048C246.392 153.875 247.2 154.517 248.137 154.897C248.917 155.358 249.825 155.555 250.726 155.457C251.404 155.318 252.003 154.748 252.5 153.729L255.116 148.356C255.187 148.208 255.16 148.109 254.986 148.028L253.312 147.176L254.937 143.92L263.08 147.911L261.47 151.176L259.769 150.319C259.607 150.235 259.506 150.272 259.437 150.415L256.733 155.939C255.729 157.976 254.326 159.139 252.514 159.404C250.702 159.669 248.469 159.155 245.813 157.851C243.156 156.548 241.256 155.041 240.335 153.437C239.414 151.833 239.431 150.024 240.436 147.987Z" fill="white"/>
<path d="M260.057 161.294C260.184 161.419 260.288 161.421 260.407 161.304L266.256 155.301C266.369 155.183 266.361 155.072 266.234 154.946L264.891 153.652L267.454 151.021L275.676 159.043L271.512 166.767L272.05 167.296L279.839 163.085L287.776 170.797L285.214 173.428L283.853 172.099C283.726 171.973 283.617 171.971 283.503 172.088L277.653 178.097C277.54 178.215 277.549 178.32 277.676 178.446L279.037 179.77L276.474 182.402L268.644 174.758L271.206 172.127L272.939 173.816C273.066 173.941 273.175 173.949 273.285 173.859L279.484 167.866L278.946 167.337L267.73 172.534L264.791 169.683L269.849 158.492L269.31 157.968L263.484 164.321C263.365 164.438 263.374 164.543 263.505 164.675L265.121 166.251L262.558 168.882L256.142 162.619L258.704 159.987L260.057 161.294Z" fill="white"/>
<path d="M284.199 205.973L280.878 195.96L284.357 194.796L285.139 197.093L286.623 195.758L284.335 188.907L282.337 188.724L283.102 191.017L279.623 192.181L276.813 183.771L280.293 182.607L280.74 183.936C280.758 184.02 280.802 184.097 280.866 184.155C280.93 184.213 281.01 184.249 281.095 184.259L294.835 186.626L296.901 192.816L287.347 203.008C287.282 203.064 287.237 203.14 287.217 203.224C287.198 203.308 287.205 203.396 287.239 203.475L287.68 204.804L284.199 205.973ZM292.52 190.294L292.272 189.554L287.338 189.127L288.853 193.666L292.52 190.294Z" fill="white"/>
<path d="M287.563 209.559C287.559 209.743 287.63 209.821 287.792 209.825L296.153 209.957C296.321 209.957 296.389 209.883 296.393 209.699L296.427 207.831L300.095 207.888L299.928 218.761L288.328 224.167L288.319 224.686L295.927 224.786C296.095 224.786 296.162 224.713 296.166 224.529L296.206 222.135L299.879 222.194L299.717 231.062L296.049 231.004L296.079 229.13C296.082 228.951 296.012 228.867 295.849 228.868L283.586 228.675L283.735 220.868L295.286 214.548L295.295 214.03L287.765 213.908C287.597 213.908 287.529 213.981 287.525 214.165L287.471 217.362L283.797 217.303L283.94 207.635L287.614 207.694L287.563 209.559Z" fill="white"/>
<path d="M281.536 238.301C281.978 237.664 282.634 237.207 283.384 237.014C284.188 236.888 285.01 236.986 285.762 237.297C285.956 237.36 286.145 237.439 286.326 237.534L286.587 236.823L282.62 235.126L284.115 231.047L289.44 232.993L287.815 237.439C285.915 237.493 284.478 238.821 283.51 241.463C283.182 242.242 282.998 243.074 282.965 243.918C282.986 244.486 283.181 244.832 283.557 244.965C283.691 245.024 283.839 245.044 283.984 245.024C284.129 245.003 284.265 244.943 284.378 244.85C284.705 244.555 284.982 244.208 285.195 243.823L288.088 238.979C288.586 238.113 289.166 237.296 289.819 236.539C290.401 235.904 291.136 235.429 291.954 235.16C292.894 234.893 293.897 234.956 294.795 235.34C296.431 235.94 297.432 236.97 297.782 238.401C298.133 239.832 297.947 241.59 297.2 243.641C296.511 245.526 295.731 246.76 294.864 247.358C293.996 247.957 292.924 247.999 291.616 247.526C291.393 247.452 291.174 247.364 290.963 247.262L290.703 247.967L294.634 249.628L293.129 253.749L287.803 251.803L289.394 247.45C290.311 247.413 291.184 247.046 291.853 246.416C292.677 245.623 293.294 244.641 293.651 243.554C293.911 242.951 294.044 242.301 294.043 241.645C294.042 241.456 293.982 241.273 293.872 241.12C293.763 240.967 293.608 240.851 293.431 240.79C293.282 240.73 293.12 240.711 292.961 240.736C292.803 240.761 292.654 240.828 292.531 240.931C292.16 241.258 291.854 241.653 291.629 242.094L288.855 246.866C288.356 247.696 287.785 248.481 287.147 249.211C286.589 249.844 285.872 250.317 285.071 250.582C284.123 250.85 283.113 250.783 282.21 250.391C280.526 249.78 279.512 248.712 279.164 247.203C278.816 245.694 279.052 243.803 279.881 241.536C280.253 240.41 280.792 239.347 281.482 238.383L281.536 238.301Z" fill="white"/>
<path d="M264.93 281.223L265.614 280.492C265.667 280.448 265.705 280.388 265.722 280.321C265.739 280.255 265.734 280.184 265.708 280.12L261.116 270.878L263.623 268.2L270.916 271.309L267.352 264.221L269.908 261.49L279.355 265.553C279.42 265.575 279.491 265.576 279.556 265.554C279.622 265.533 279.679 265.491 279.719 265.435L280.403 264.704L282.512 266.686L277.937 271.566L275.826 269.59L276.714 268.64L271.462 265.938L271.085 266.348L274.043 271.494L274.978 270.497L277.093 272.48L271.626 278.326L269.517 276.344L270.493 275.305L265.258 272.573L264.875 272.981L267.833 278.128L268.698 277.212L270.804 279.188L267.054 283.191L264.93 281.223Z" fill="#25FD1E"/>
<path d="M258 277.165C257.888 277.233 257.864 277.307 257.954 277.422L261.333 283.092C261.344 283.116 261.36 283.137 261.38 283.152C261.4 283.168 261.424 283.179 261.45 283.184C261.475 283.188 261.501 283.186 261.526 283.178C261.55 283.17 261.573 283.157 261.59 283.138L262.736 282.456L264.22 284.935L257.868 288.73L256.389 286.251L257.535 285.563C257.558 285.552 257.579 285.536 257.595 285.516C257.611 285.496 257.621 285.472 257.626 285.446C257.63 285.421 257.629 285.395 257.621 285.37C257.613 285.346 257.599 285.323 257.581 285.305L256.583 283.638L252.54 286.081L253.537 287.754C253.548 287.778 253.564 287.799 253.584 287.815C253.604 287.83 253.628 287.841 253.654 287.846C253.679 287.85 253.705 287.848 253.73 287.84C253.754 287.833 253.777 287.819 253.795 287.8L254.94 287.118L256.424 289.598L250.072 293.392L248.593 290.913L249.738 290.23C249.761 290.22 249.782 290.204 249.798 290.183C249.814 290.163 249.824 290.139 249.829 290.114C249.834 290.088 249.832 290.062 249.824 290.038C249.816 290.013 249.802 289.991 249.784 289.973L246.405 284.303C246.394 284.279 246.378 284.259 246.358 284.243C246.337 284.227 246.313 284.216 246.288 284.212C246.263 284.207 246.236 284.209 246.212 284.217C246.187 284.225 246.165 284.238 246.147 284.257L245.002 284.94L243.523 282.461L249.869 278.671L251.348 281.15L250.202 281.838C250.178 281.848 250.158 281.864 250.142 281.885C250.126 281.905 250.115 281.929 250.111 281.954C250.106 281.98 250.108 282.006 250.116 282.03C250.124 282.055 250.138 282.077 250.156 282.095L251.28 283.957L255.336 281.532L254.212 279.67C254.2 279.648 254.184 279.628 254.164 279.613C254.143 279.598 254.12 279.588 254.095 279.583C254.07 279.579 254.044 279.58 254.02 279.587C253.995 279.594 253.973 279.607 253.954 279.625L252.808 280.313L251.329 277.834L257.654 274.007L259.133 276.486L258 277.165Z" fill="#25FD1E"/>
<path d="M241.683 284.377C243.134 285.084 244.19 286.485 244.865 288.632C245.54 290.78 245.504 292.535 244.724 293.936C243.943 295.337 242.433 296.392 240.192 297.107C237.951 297.822 236.11 297.843 234.65 297.157C233.19 296.471 232.153 295.051 231.476 292.914C230.8 290.777 230.837 289.011 231.614 287.598C232.391 286.186 233.898 285.119 236.139 284.404C238.38 283.689 240.229 283.686 241.674 284.392L241.683 284.377ZM235.389 288.652C235.206 289.615 235.3 290.609 235.659 291.52C235.882 292.465 236.378 293.324 237.084 293.989C237.395 294.211 237.758 294.35 238.138 294.392C238.517 294.435 238.902 294.379 239.254 294.231C239.635 294.144 239.989 293.965 240.283 293.708C240.578 293.451 240.805 293.125 240.944 292.759C241.147 291.818 241.061 290.837 240.697 289.946C240.469 288.997 239.966 288.136 239.25 287.473C238.928 287.247 238.554 287.106 238.163 287.064C237.772 287.022 237.377 287.079 237.014 287.23C236.637 287.317 236.289 287.501 236.004 287.763C235.719 288.025 235.507 288.356 235.387 288.724L235.389 288.652Z" fill="#25FD1E"/>
<path d="M227.945 289.937C227.914 289.935 227.883 289.94 227.855 289.952C227.827 289.964 227.802 289.983 227.783 290.006C227.763 290.03 227.75 290.058 227.744 290.088C227.737 290.118 227.738 290.149 227.747 290.179L228.356 296.674C228.354 296.705 228.359 296.735 228.371 296.764C228.383 296.792 228.402 296.817 228.425 296.836C228.448 296.856 228.476 296.87 228.506 296.877C228.536 296.885 228.567 296.885 228.596 296.878L229.891 296.753L230.159 299.632L222.803 300.328L222.535 297.45L223.824 297.33C223.854 297.333 223.885 297.327 223.913 297.315C223.941 297.303 223.966 297.285 223.985 297.261C224.005 297.237 224.018 297.209 224.025 297.179C224.031 297.149 224.03 297.118 224.022 297.088L223.413 290.588C223.414 290.557 223.408 290.527 223.396 290.5C223.384 290.472 223.365 290.448 223.342 290.429C223.318 290.409 223.291 290.396 223.261 290.389C223.232 290.382 223.201 290.383 223.172 290.39L219.233 290.758C219.063 290.778 219 290.855 219.012 291.007L219.085 293.922L216.057 294.209L215.492 288.209L228.955 286.932L229.223 289.81L227.945 289.937Z" fill="#25FD1E"/>
<path d="M213.054 290.999C212.925 290.976 212.865 291.032 212.848 291.156L212.053 297.712C212.03 297.841 212.091 297.902 212.215 297.918L213.543 298.077L213.192 300.95L199.861 299.337L200.51 293.98L203.636 294.359L203.54 296.701C203.521 296.809 203.575 296.874 203.7 296.891L207.709 297.371L207.983 295.149L204.506 294.724L204.77 292.555L208.242 292.974L208.525 290.636C208.548 290.508 208.493 290.442 208.363 290.43L204.263 289.933C204.24 289.929 204.217 289.928 204.194 289.933C204.171 289.938 204.15 289.947 204.131 289.96C204.112 289.973 204.096 289.99 204.084 290.01C204.072 290.03 204.064 290.052 204.06 290.075L203.546 292.78L200.436 292.405L201.132 286.662L214.723 288.305L214.377 291.179L213.054 290.999Z" fill="#25FD1E"/>
<path d="M192.123 287.164C192.102 287.15 192.078 287.14 192.053 287.137C192.028 287.134 192.002 287.137 191.978 287.146C191.954 287.154 191.933 287.169 191.916 287.188C191.899 287.207 191.886 287.229 191.88 287.254L189.151 293.261C189.137 293.282 189.128 293.306 189.124 293.332C189.121 293.357 189.124 293.383 189.133 293.407C189.141 293.432 189.155 293.453 189.174 293.471C189.193 293.489 189.215 293.502 189.24 293.509L190.458 294.064L189.232 296.693L182.207 293.476L182.312 283.557L181.974 283.403L179.488 288.855C179.474 288.876 179.465 288.9 179.461 288.926C179.458 288.951 179.461 288.977 179.47 289.001C179.478 289.026 179.493 289.047 179.511 289.065C179.53 289.083 179.552 289.096 179.577 289.103L181.111 289.808L179.913 292.437L174.182 289.816L175.386 287.189L176.599 287.742C176.716 287.796 176.786 287.776 176.842 287.647L180.865 278.846L185.937 281.161L186.404 291.287L186.741 291.441L189.207 286.041C189.261 285.924 189.241 285.854 189.112 285.797L187.067 284.852L188.271 282.224L194.524 285.082L193.32 287.715L192.123 287.164Z" fill="#25FD1E"/>
<path d="M166.672 267.995L172.57 272.661L170.771 274.934L169.423 273.863L168.976 275.351L173.016 278.552L174.34 277.768L172.991 276.703L174.784 274.429L179.768 278.357L177.976 280.625L177.19 280.003C177.143 279.961 177.084 279.935 177.021 279.929C176.959 279.923 176.896 279.937 176.842 279.969L167.159 284.633L163.507 281.768L165.806 271.242C165.826 271.181 165.825 271.116 165.803 271.056C165.782 270.996 165.742 270.945 165.688 270.911L164.872 270.239L166.672 267.995ZM167.218 281.342L167.655 281.686L170.982 279.752L168.308 277.614L167.218 281.342Z" fill="#25FD1E"/>
<path d="M162.388 266.972C162.307 266.869 162.23 266.866 162.131 266.926L156.931 271.275L158.037 272.58C158.066 272.62 158.108 272.647 158.157 272.656C158.205 272.664 158.255 272.653 158.295 272.625L160.196 271.269L162.143 273.609L158.003 277.066L148.617 265.846L152.757 262.389L154.704 264.724L153.03 266.36C153.012 266.379 152.998 266.401 152.989 266.425C152.98 266.45 152.976 266.476 152.977 266.501C152.978 266.527 152.984 266.553 152.995 266.576C153.006 266.6 153.022 266.621 153.041 266.639L154.148 267.943L159.348 263.595C159.371 263.584 159.391 263.567 159.406 263.547C159.421 263.526 159.431 263.503 159.436 263.478C159.44 263.453 159.439 263.427 159.431 263.403C159.424 263.378 159.411 263.356 159.394 263.337L158.107 261.834L160.351 259.979L165.927 266.677L163.71 268.498L162.388 266.972Z" fill="#25FD1E"/>
<path d="M153.139 258.219L148.822 260.404C148.797 260.41 148.773 260.422 148.754 260.439C148.735 260.457 148.721 260.479 148.712 260.504C148.704 260.528 148.702 260.554 148.707 260.58C148.712 260.605 148.723 260.629 148.739 260.649L149.337 261.864L146.758 263.139L143.429 256.536L146.009 255.25L146.607 256.464C146.614 256.489 146.627 256.511 146.644 256.529C146.662 256.548 146.684 256.561 146.708 256.569C146.732 256.578 146.758 256.58 146.783 256.576C146.808 256.572 146.832 256.562 146.852 256.547L151.053 254.425C151.851 254.013 152.317 253.542 152.412 253.005C152.473 252.277 152.302 251.549 151.925 250.924C151.679 250.319 151.23 249.82 150.654 249.512C150.334 249.424 149.998 249.405 149.669 249.456C149.341 249.507 149.026 249.628 148.748 249.81L144.547 251.932C144.522 251.94 144.5 251.953 144.482 251.971C144.463 251.99 144.449 252.012 144.441 252.036C144.433 252.061 144.431 252.087 144.435 252.112C144.439 252.138 144.448 252.162 144.463 252.183L145.061 253.397L142.491 254.624L139.58 248.843L142.158 247.541L142.766 248.757C142.773 248.781 142.787 248.804 142.805 248.822C142.823 248.84 142.845 248.854 142.87 248.862C142.894 248.87 142.92 248.873 142.946 248.869C142.971 248.865 142.995 248.855 143.016 248.84L147.334 246.656C148.941 245.834 150.335 245.738 151.547 246.331C152.759 246.923 153.844 248.163 154.791 250.054C155.738 251.946 156.138 253.618 155.903 254.972C155.667 256.326 154.723 257.404 153.139 258.219Z" fill="#25FD1E"/>
<path d="M144.329 227.841C144.752 227.703 145.199 227.661 145.64 227.716C146.08 227.772 146.503 227.924 146.878 228.161C147.522 228.619 147.99 229.5 148.295 230.801C148.54 231.621 148.539 232.496 148.291 233.315C147.999 234.017 147.507 234.617 146.877 235.041L144.193 237.001C144.136 237.042 144.094 237.1 144.072 237.167C144.05 237.234 144.05 237.306 144.072 237.373L144.369 238.655L146.586 238.136C146.613 238.135 146.638 238.128 146.661 238.115C146.684 238.102 146.703 238.084 146.717 238.061C146.731 238.039 146.739 238.014 146.74 237.988C146.742 237.961 146.737 237.935 146.726 237.911L146.451 236.721L149.263 236.064L150.916 243.161L148.104 243.818L147.783 242.514C147.781 242.489 147.773 242.464 147.76 242.442C147.746 242.42 147.728 242.401 147.706 242.388C147.684 242.374 147.66 242.366 147.634 242.364C147.608 242.361 147.583 242.365 147.559 242.375L141.147 243.86C141.121 243.862 141.096 243.87 141.074 243.883C141.052 243.896 141.034 243.915 141.02 243.937C141.007 243.958 140.998 243.983 140.996 244.009C140.994 244.035 140.998 244.06 141.007 244.084L141.329 245.388L138.481 246.061L135.952 235.18C135.62 234.097 135.673 232.932 136.101 231.883C136.334 231.447 136.664 231.072 137.067 230.786C137.469 230.5 137.932 230.311 138.42 230.235C139.574 229.969 140.463 230.1 141.113 230.647C141.762 231.195 142.277 232.223 142.63 233.72L142.906 234.877L144.783 233.467C145.184 233.144 145.363 232.855 145.3 232.583C145.289 232.502 145.26 232.424 145.215 232.356C145.169 232.287 145.109 232.23 145.039 232.188C144.862 232.123 144.67 232.116 144.489 232.168L143.045 232.509L142.077 228.337L144.329 227.841ZM141.619 235.391C141.397 234.432 140.871 234.061 140.04 234.251C139.862 234.277 139.691 234.341 139.539 234.439C139.388 234.538 139.26 234.668 139.164 234.821C139.01 235.188 138.993 235.597 139.114 235.975L139.968 239.662L142.452 239.106L141.597 235.42L141.619 235.391Z" fill="#25FD1E"/>
<path d="M144.312 225.201C144.316 225.175 144.314 225.149 144.306 225.124C144.298 225.099 144.285 225.076 144.266 225.058C144.248 225.04 144.226 225.026 144.201 225.018C144.176 225.01 144.15 225.008 144.124 225.012L137.534 224.981C137.405 224.958 137.347 225.036 137.346 225.169L137.335 226.502L134.449 226.487L134.517 213.044L139.924 213.07L139.916 216.226L137.578 216.397C137.471 216.378 137.413 216.456 137.412 216.583L137.39 220.629L139.634 220.64L139.65 217.131L141.86 217.148L141.84 220.651L144.195 220.665C144.22 220.669 144.245 220.668 144.269 220.66C144.294 220.652 144.316 220.639 144.333 220.621C144.351 220.603 144.365 220.581 144.372 220.556C144.38 220.532 144.381 220.506 144.377 220.482L144.4 216.342C144.419 216.235 144.346 216.177 144.233 216.157L141.502 215.959L141.506 212.825L147.305 212.854L147.23 226.556L144.339 226.541L144.312 225.201Z" fill="#25FD1E"/>
</g>
<defs>
<clipPath id="clip0_82_115">
<rect width="97.8673" height="104.359" fill="white" transform="translate(189.38 148.231) rotate(19.533)"/>
</clipPath>
<clipPath id="clip1_82_115">
<rect width="97.8673" height="43.291" fill="white" transform="translate(181.895 169.328) rotate(19.533)"/>
</clipPath>
<clipPath id="clip2_82_115">
<rect width="20.7205" height="35.3358" fill="white" transform="translate(203.289 158.269) rotate(19.533)"/>
</clipPath>
<clipPath id="clip3_82_115">
<rect width="20.7205" height="35.3358" fill="white" transform="translate(219.853 164.146) rotate(19.533)"/>
</clipPath>
<clipPath id="clip4_82_115">
<rect width="193.917" height="191.951" fill="white" transform="translate(157.45 94.377) rotate(19.533)"/>
</clipPath>
</defs>
</svg>
