<svg width="180" height="180" viewBox="0 0 180 180" fill="none" xmlns="http://www.w3.org/2000/svg">
<g clip-path="url(#clip0_82_369)">
<circle cx="89.5442" cy="89.5441" r="68.399" transform="rotate(21.7784 89.5442 89.5441)" fill="white" stroke="black"/>
<mask id="path-2-inside-1_82_369" fill="white">
<path d="M145.432 111.873C133.1 142.739 98.0812 157.764 67.2151 145.432C36.349 133.1 21.3241 98.0811 33.6562 67.215C45.9882 36.3488 81.0073 21.324 111.873 33.6561C142.739 45.9881 157.764 81.0071 145.432 111.873ZM71.8879 82.4898C67.9919 92.2411 72.7386 103.304 82.4899 107.2C92.2413 111.096 103.305 106.35 107.201 96.5984C111.097 86.8471 106.35 75.7837 96.5985 71.8877C86.8472 67.9917 75.7839 72.7384 71.8879 82.4898Z"/>
</mask>
<path d="M145.432 111.873C133.1 142.739 98.0812 157.764 67.2151 145.432C36.349 133.1 21.3241 98.0811 33.6562 67.215C45.9882 36.3488 81.0073 21.324 111.873 33.6561C142.739 45.9881 157.764 81.0071 145.432 111.873ZM71.8879 82.4898C67.9919 92.2411 72.7386 103.304 82.4899 107.2C92.2413 111.096 103.305 106.35 107.201 96.5984C111.097 86.8471 106.35 75.7837 96.5985 71.8877C86.8472 67.9917 75.7839 72.7384 71.8879 82.4898Z" fill="#FFEA01" stroke="black" stroke-width="1.99226" mask="url(#path-2-inside-1_82_369)"/>
<g clip-path="url(#clip1_82_369)">
<path d="M143.577 87.3002C142.735 89.4061 140.346 90.4312 138.24 89.5898C136.134 88.7484 135.109 86.3592 135.95 84.2533C136.792 82.1475 139.181 81.1224 141.287 81.9637C143.393 82.8051 144.418 85.1943 143.577 87.3002Z" stroke="#0123FF" stroke-width="0.212099"/>
<path d="M140.41 86.035C140.267 86.3919 139.862 86.5657 139.505 86.4231C139.148 86.2804 138.975 85.8755 139.117 85.5186C139.26 85.1616 139.665 84.9879 140.022 85.1305C140.379 85.2731 140.552 85.6781 140.41 86.035Z" stroke="#0123FF" stroke-width="0.212099"/>
<path d="M141.056 86.2932C140.771 87.0071 139.961 87.3545 139.247 87.0693C138.533 86.7841 138.186 85.9742 138.471 85.2604C138.756 84.5465 139.566 84.199 140.28 84.4842C140.994 84.7694 141.341 85.5793 141.056 86.2932Z" stroke="#0123FF" stroke-width="0.212099"/>
<path d="M141.702 86.5514C141.274 87.6222 140.06 88.1434 138.989 87.7156C137.918 87.2878 137.397 86.0729 137.825 85.0021C138.252 83.9314 139.467 83.4101 140.538 83.8379C141.609 84.2658 142.13 85.4806 141.702 86.5514Z" stroke="#0123FF" stroke-width="0.212099"/>
<path d="M142.349 86.8096C141.778 88.2373 140.158 88.9323 138.731 88.3619C137.303 87.7915 136.608 86.1717 137.178 84.7439C137.749 83.3162 139.369 82.6212 140.796 83.1917C142.224 83.7621 142.919 85.3819 142.349 86.8096Z" stroke="#0123FF" stroke-width="0.212099"/>
<path d="M142.995 87.0678C142.282 88.8525 140.257 89.7212 138.472 89.0082C136.688 88.2951 135.819 86.2704 136.532 84.4857C137.245 82.7011 139.27 81.8324 141.055 82.5454C142.839 83.2584 143.708 85.2832 142.995 87.0678Z" stroke="#0123FF" stroke-width="0.212099"/>
</g>
<g clip-path="url(#clip2_82_369)">
<path d="M58.785 53.4231C57.9436 55.529 55.5544 56.5541 53.4485 55.7127C51.3427 54.8713 50.3176 52.4821 51.1589 50.3762C52.0003 48.2704 54.3895 47.2453 56.4954 48.0866C58.6013 48.928 59.6264 51.3172 58.785 53.4231Z" stroke="#0123FF" stroke-width="0.212099"/>
<path d="M55.6182 52.1579C55.4756 52.5148 55.0707 52.6886 54.7138 52.5459C54.3568 52.4033 54.1831 51.9984 54.3257 51.6415C54.4683 51.2845 54.8733 51.1108 55.2302 51.2534C55.5871 51.396 55.7609 51.801 55.6182 52.1579Z" stroke="#0123FF" stroke-width="0.212099"/>
<path d="M56.2645 52.4161C55.9793 53.1299 55.1694 53.4774 54.4556 53.1922C53.7417 52.907 53.3942 52.0971 53.6794 51.3833C53.9646 50.6694 54.7745 50.3219 55.4884 50.6071C56.2022 50.8923 56.5497 51.7022 56.2645 52.4161Z" stroke="#0123FF" stroke-width="0.212099"/>
<path d="M56.9108 52.6743C56.483 53.7451 55.2681 54.2663 54.1973 53.8385C53.1266 53.4107 52.6053 52.1958 53.0331 51.125C53.461 50.0543 54.6758 49.533 55.7466 49.9608C56.8174 50.3887 57.3386 51.6035 56.9108 52.6743Z" stroke="#0123FF" stroke-width="0.212099"/>
<path d="M57.5571 52.9325C56.9867 54.3602 55.3668 55.0552 53.9391 54.4848C52.5114 53.9144 51.8164 52.2945 52.3869 50.8668C52.9573 49.4391 54.5771 48.7441 56.0048 49.3146C57.4325 49.885 58.1275 51.5048 57.5571 52.9325Z" stroke="#0123FF" stroke-width="0.212099"/>
<path d="M58.2034 53.1907C57.4903 54.9754 55.4656 55.8441 53.6809 55.1311C51.8963 54.418 51.0276 52.3933 51.7406 50.6086C52.4536 48.824 54.4784 47.9553 56.263 48.6683C58.0477 49.3813 58.9164 51.4061 58.2034 53.1907Z" stroke="#0123FF" stroke-width="0.212099"/>
</g>
<g clip-path="url(#clip3_82_369)">
<g clip-path="url(#clip4_82_369)">
<path d="M138.497 93.0859L136.712 92.6627L135.635 97.2058L137.419 97.629L137.74 96.2769L138.818 97.0323L137.862 101.062L136.56 101.253L136.881 99.9005L135.096 99.4773L133.929 104.399L135.714 104.822L135.922 103.943C135.945 103.849 136.001 103.791 136.092 103.769L144.318 102.021L144.934 99.4251L138.368 94.1694C138.297 94.1096 138.272 94.0324 138.295 93.9378L138.497 93.0859ZM139.554 100.792L140.221 97.9792L142.965 99.9007L142.868 100.306L139.554 100.792Z" fill="#0123FF"/>
<path d="M134.709 108.701L133.152 107.731L127.964 116.058L131.597 118.321L132.596 116.717L130.759 115.409C130.712 115.379 130.684 115.345 130.671 115.288C130.657 115.23 130.675 115.176 130.712 115.117L132.585 112.109C132.651 112.003 132.747 111.981 132.853 112.047L137.524 114.957C137.63 115.023 137.652 115.118 137.586 115.225L136.954 116.239L138.511 117.209L141.274 112.774L139.717 111.804L139.085 112.819C139.019 112.925 138.923 112.947 138.817 112.881L134.146 109.971C134.04 109.905 134.018 109.809 134.084 109.703L134.709 108.701Z" fill="#0123FF"/>
<path d="M127.092 120.121L125.737 118.886L122.218 122.748L123.574 123.983L124.416 123.059C124.481 122.987 124.54 122.984 124.612 123.05L128.762 126.831C128.834 126.896 128.837 126.955 128.771 127.027L127.929 127.951L129.285 129.187L132.804 125.324L131.448 124.089L130.606 125.014C130.54 125.085 130.481 125.088 130.409 125.023L126.259 121.242C126.187 121.176 126.185 121.117 126.25 121.046L127.092 120.121Z" fill="#0123FF"/>
<path d="M120.929 126.467L119.831 124.997L115.021 128.589L116.119 130.059L117.433 129.078C117.511 129.02 117.569 129.028 117.627 129.106L121.07 133.715L119.6 134.813C119.567 134.838 119.525 134.852 119.486 134.846C119.447 134.84 119.419 134.826 119.394 134.793L118.169 133.384L116.655 134.515L118.95 137.588L127.344 131.318L125.049 128.246L123.535 129.376L124.538 130.951C124.563 130.985 124.568 131.015 124.563 131.054C124.557 131.093 124.532 131.129 124.499 131.154L123.029 132.252L119.587 127.643C119.528 127.565 119.537 127.506 119.615 127.448L120.929 126.467Z" fill="#0123FF"/>
<path d="M110.954 133.037L110.255 131.34L104.704 133.626L105.403 135.322L106.919 134.698C107.009 134.661 107.063 134.684 107.1 134.774L109.291 140.093L107.595 140.792C107.556 140.807 107.513 140.81 107.476 140.795C107.44 140.78 107.417 140.76 107.401 140.721L106.563 139.052L104.816 139.772L106.276 143.318L115.964 139.329L114.504 135.782L112.756 136.502L113.337 138.277C113.353 138.315 113.351 138.346 113.336 138.382C113.32 138.419 113.287 138.447 113.249 138.463L111.553 139.162L109.362 133.842C109.325 133.752 109.348 133.698 109.437 133.661L110.954 133.037Z" fill="#0123FF"/>
<path d="M102.147 136.547L101.874 134.733L92.1726 136.189L92.8078 140.422L94.6767 140.141L94.48 137.895C94.4718 137.84 94.4793 137.796 94.5144 137.749C94.5494 137.701 94.6023 137.679 94.671 137.669L98.1752 137.143C98.2989 137.125 98.3779 137.183 98.3965 137.307L99.2132 142.749C99.2318 142.872 99.1734 142.951 99.0497 142.97L97.8679 143.147L98.1401 144.961L103.307 144.186L103.035 142.372L101.853 142.549C101.729 142.568 101.65 142.509 101.632 142.386L100.815 136.944C100.797 136.82 100.855 136.741 100.979 136.722L102.147 136.547Z" fill="#0123FF"/>
<path d="M90.7 138.195L90.8635 136.369L81.092 135.494L80.7205 139.646L82.6028 139.815L82.9369 137.64C82.9456 137.544 83.0046 137.507 83.1015 137.516L86.7416 137.841C86.8385 137.85 86.8763 137.895 86.8676 137.992L86.672 140.179L83.6132 139.905L83.4745 141.455L86.5333 141.729L86.3549 143.722L82.7564 143.4C82.7149 143.396 82.6746 143.379 82.6494 143.349C82.6242 143.319 82.6128 143.29 82.6165 143.248L82.644 141.381L80.7617 141.213L80.4199 145.033L90.0115 145.891L90.1749 144.064L88.9293 143.952C88.8324 143.944 88.7946 143.899 88.8033 143.802L89.3036 138.21C89.3122 138.113 89.3575 138.075 89.4544 138.084L90.7 138.195Z" fill="#0123FF"/>
<path d="M75.2517 136.037L75.9844 134.356L70.7613 132.08L70.0287 133.761L71.6083 134.45C71.6975 134.489 71.7191 134.543 71.6802 134.633L71.0474 136.085L68.7671 135.091C67.5314 134.553 66.5254 134.357 65.7435 134.517C64.9616 134.676 64.3688 135.236 63.947 136.205C63.5251 137.173 63.5256 138.007 63.9301 138.713C64.3346 139.42 65.1574 140.036 66.3931 140.575L72.1895 143.1L72.9221 141.419L71.7756 140.919C71.6864 140.88 71.6649 140.825 71.7037 140.736L73.9461 135.59C73.985 135.5 74.0399 135.479 74.129 135.518L75.2517 136.037ZM68.249 136.594L70.4274 137.543L69.4061 139.887L67.2277 138.938C66.6799 138.699 66.3239 138.438 66.1523 138.136C65.9808 137.833 65.9811 137.485 66.1587 137.077C66.3363 136.67 66.5914 136.432 66.9294 136.352C67.2675 136.272 67.7012 136.355 68.249 136.594Z" fill="#0123FF"/>
<path d="M59.9667 125.479C59.7869 125.145 59.4876 124.806 59.0603 124.473C58.2714 123.857 57.5797 123.547 56.9959 123.549C56.4121 123.552 55.8754 123.856 55.3882 124.481L54.277 125.905L56.4243 127.58L57.2107 126.572C57.3646 126.375 57.5086 126.258 57.6427 126.222C57.7768 126.185 57.9315 126.236 58.0958 126.364C58.2273 126.466 58.3027 126.596 58.322 126.752C58.3412 126.908 58.3178 127.119 58.243 127.395L57.7672 129.315L57.0442 128.751C56.1129 128.025 55.3273 127.676 54.6874 127.706C54.0475 127.735 53.4681 128.094 52.9467 128.762C52.4424 129.408 52.2574 130.075 52.4111 130.759C52.5649 131.443 53.0636 132.114 53.9072 132.772L60.0535 137.567L61.1818 136.121L60.1957 135.352C60.119 135.292 60.1118 135.233 60.1716 135.157L63.6249 130.73C63.6847 130.654 63.7432 130.646 63.8199 130.706L64.806 131.476L65.9343 130.029L61.9463 126.918L60.818 128.364L61.6726 129.031C61.7492 129.091 61.7565 129.149 61.6966 129.226L60.4316 130.848L59.5222 130.138C59.4346 130.07 59.414 129.983 59.441 129.881L59.9888 127.823C60.1237 127.311 60.1986 126.876 60.2029 126.51C60.2071 126.143 60.1247 125.797 59.9448 125.462L59.9667 125.479ZM56.7999 129.9L59.5279 132.028L58.1603 133.781L55.4323 131.653C54.764 131.132 54.6661 130.579 55.1191 129.999C55.3499 129.703 55.6085 129.552 55.8949 129.546C56.1813 129.541 56.4822 129.652 56.7999 129.9Z" fill="#0123FF"/>
<path d="M52.2154 125.038C54.8392 123.002 55.1428 120.673 53.1153 118.06C51.0878 115.447 48.7566 115.163 46.1328 117.199C43.52 119.227 43.2273 121.547 45.2549 124.16C47.2824 126.773 49.6026 127.065 52.2154 125.038ZM49.8708 118.186C50.5326 118.2 51.1331 118.543 51.6527 119.213C52.1724 119.883 52.3557 120.549 52.205 121.194C52.0544 121.838 51.5674 122.48 50.7441 123.119C49.9207 123.758 49.1781 124.07 48.5249 124.067C47.8716 124.064 47.2821 123.712 46.754 123.032C46.2258 122.351 46.0315 121.693 46.1907 121.059C46.3498 120.426 46.8368 119.784 47.6602 119.145C48.4835 118.506 49.2261 118.194 49.8879 118.208L49.8708 118.186Z" fill="#0123FF"/>
<path d="M47.8433 112.83C48.3259 111.806 48.2591 110.594 47.6611 109.202C47.2278 108.194 46.7108 107.554 46.1102 107.283C45.5097 107.011 44.727 107.09 43.7494 107.526L43.5958 107.168L46.0342 105.909L45.1894 103.943L42.1891 105.232C42.0997 105.27 42.0449 105.248 42.0065 105.159L41.6116 104.24L40.0539 104.909L42.2208 109.952L43.7784 109.283L43.0872 107.674C44.2749 107.481 45.1567 108.055 45.7327 109.396C46.4294 111.017 45.8229 112.246 43.9078 113.069C42.9375 113.486 42.1348 113.589 41.4869 113.383C40.8389 113.177 40.3348 112.638 39.9673 111.782C39.4242 110.518 39.6806 109.531 40.7181 108.813L39.6923 106.425L36.4621 107.813L37.296 109.754L40.0538 108.675L40.2074 109.032C38.2521 109.797 37.6768 111.133 38.4996 113.048C39.0811 114.401 39.9395 115.273 41.0693 115.649C42.1991 116.026 43.4945 115.908 44.9499 115.283C46.4182 114.652 47.3936 113.824 47.8761 112.8L47.8433 112.83Z" fill="#0123FF"/>
<path d="M43.369 94.758C43.4728 94.3929 43.4945 93.941 43.4203 93.4042C43.2833 92.4131 43.0035 91.7083 42.5828 91.3035C42.1621 90.8988 41.5654 90.7428 40.7808 90.8513L38.9913 91.0987L39.3643 93.7966L40.6307 93.6215C40.8785 93.5873 41.0631 93.6038 41.1847 93.6712C41.3062 93.7385 41.3822 93.8824 41.4108 94.0888C41.4336 94.254 41.3976 94.3993 41.3027 94.5246C41.2078 94.65 41.0441 94.7848 40.7977 94.9311L39.1187 95.9769L38.9931 95.0684C38.8313 93.8984 38.5106 93.101 38.0311 92.6763C37.5515 92.2517 36.886 92.1052 36.0463 92.2213C35.2342 92.3336 34.6372 92.6827 34.2709 93.2804C33.9047 93.8781 33.7948 94.707 33.9413 95.7669L35.009 103.489L36.826 103.238L36.6547 101.999C36.6414 101.903 36.677 101.856 36.7733 101.842L42.3344 101.073C42.4307 101.06 42.4777 101.096 42.4911 101.192L42.6623 102.431L44.4793 102.18L43.7866 97.1692L41.9696 97.4204L42.118 98.4941C42.1314 98.5904 42.0958 98.6374 41.9994 98.6507L39.9622 98.9324L39.8042 97.7899C39.789 97.6798 39.8346 97.6034 39.9252 97.5487L41.7519 96.4545C42.2051 96.1814 42.562 95.9216 42.8206 95.6614C43.0792 95.4012 43.2614 95.0955 43.3652 94.7304L43.369 94.758ZM38.0174 95.7223L38.4913 99.1498L36.2889 99.4543L35.815 96.0268C35.6989 95.1872 36.0134 94.7229 36.743 94.622C37.1146 94.5706 37.4052 94.6427 37.6146 94.8382C37.8239 95.0336 37.9622 95.3232 38.0174 95.7223Z" fill="#0123FF"/>
<path d="M40.98 89.6836L42.8019 89.8956L43.936 80.1509L39.7952 79.669L39.5768 81.5462L41.7415 81.938C41.8381 81.9492 41.8731 82.0093 41.8619 82.1059L41.4394 85.736C41.4282 85.8326 41.3819 85.8692 41.2853 85.858L39.1045 85.6042L39.4595 82.5538L37.9136 82.3738L37.5586 85.4243L35.571 85.1929L35.9886 81.6042C35.9935 81.5628 36.0121 81.523 36.0429 81.4986C36.0737 81.4742 36.1029 81.4636 36.1443 81.4685L38.01 81.5457L38.2284 79.6685L34.4189 79.2252L33.3057 88.7905L35.1276 89.0025L35.2722 87.7602C35.2834 87.6636 35.3297 87.627 35.4263 87.6383L41.0026 88.2873C41.0992 88.2985 41.1358 88.3447 41.1246 88.4413L40.98 89.6836Z" fill="#0123FF"/>
<path d="M45.1925 74.7523C45.7029 74.4259 46.158 73.7366 46.5577 72.6844C46.9869 71.5542 47.1066 70.574 46.9166 69.7437C46.7265 68.9135 46.1484 68.3223 45.1871 67.9571C44.5766 67.7252 44.0336 67.6676 43.5712 67.7892C43.1088 67.9109 42.7126 68.132 42.3957 68.4576C42.0788 68.7832 41.7583 69.1965 41.4292 69.7107L39.9097 72.1065C39.6838 72.4666 39.4762 72.6999 39.2952 72.8244C39.1141 72.9488 38.9026 72.9577 38.6688 72.8689C38.396 72.7652 38.2456 72.5743 38.2175 72.2961C38.1894 72.0179 38.2577 71.6424 38.4353 71.1748C38.7017 70.4733 39.0797 69.948 39.5511 69.6068C40.0226 69.2656 40.5585 69.0678 41.141 69.0215L41.8959 67.034L38.7393 65.835L38.0337 67.6926L40.4593 68.7031L40.3211 69.0668C40.2221 69.0144 40.0792 68.9601 39.8844 68.8861C39.0919 68.5851 38.4544 68.5808 37.9588 68.8682C37.4631 69.1556 37.0229 69.8059 36.6429 70.8061C36.2383 71.8713 36.1434 72.7866 36.35 73.534C36.5566 74.2814 37.1446 74.8466 38.1189 75.2167C38.7164 75.4437 39.2464 75.4963 39.6959 75.3698C40.1453 75.2432 40.5284 75.0171 40.8453 74.6915C41.1623 74.366 41.4828 73.9526 41.8119 73.4384L43.4048 70.9665C43.5931 70.6665 43.7729 70.4672 43.936 70.3508C44.0992 70.2343 44.2976 70.2206 44.5315 70.3094C45.103 70.5265 45.1619 71.2326 44.7079 72.4277C44.4266 73.1681 44.0389 73.7195 43.5445 74.0817C43.0502 74.4439 42.5272 74.6466 41.9677 74.6719L41.2127 76.6594L44.3694 77.8585L45.075 76.0008L42.7014 75.0101L42.8346 74.6593C42.9206 74.7068 43.0505 74.7562 43.2194 74.8203C44.0118 75.1213 44.6542 75.1127 45.1647 74.7863L45.1925 74.7523Z" fill="#0123FF"/>
<path d="M50.0342 64.5914C50.6079 64.3965 51.2145 63.836 51.8542 62.9098C52.5412 61.915 52.8917 60.9918 52.9056 60.1402C52.9196 59.2886 52.4996 58.5763 51.6534 57.992C51.116 57.6208 50.6026 57.4351 50.1245 57.4427C49.6464 57.4503 49.2089 57.5703 48.8233 57.8106C48.4378 58.051 48.0277 58.3758 47.5853 58.7964L45.5371 60.7594C45.2316 61.0551 44.9743 61.232 44.7688 61.3096C44.5632 61.3872 44.3557 61.3452 44.1499 61.2031C43.9098 61.0373 43.8094 60.8159 43.8486 60.539C43.8878 60.2621 44.0439 59.9139 44.3282 59.5023C44.7546 58.8849 45.2471 58.4651 45.7865 58.2465C46.3259 58.0279 46.8935 57.964 47.4702 58.0583L48.6783 56.3088L45.8999 54.39L44.7706 56.0251L46.8843 57.5861L46.6632 57.9063C46.5796 57.8317 46.4539 57.7448 46.2823 57.6264C45.5849 57.1447 44.9668 56.9881 44.4169 57.1486C43.8669 57.3092 43.2839 57.8354 42.6759 58.7159C42.0284 59.6535 41.7174 60.5195 41.7393 61.2946C41.7613 62.0697 42.1971 62.7591 43.0547 63.3514C43.5807 63.7146 44.0827 63.8925 44.5494 63.877C45.016 63.8615 45.4421 63.7336 45.8276 63.4932C46.2132 63.2529 46.6232 62.9281 47.0657 62.5075L49.2034 60.4881C49.458 60.2417 49.6802 60.0912 49.8664 60.0171C50.0526 59.9431 50.2487 59.9771 50.4545 60.1193C50.9576 60.4667 50.8459 61.1664 50.1194 62.2184C49.6693 62.8701 49.1609 63.3128 48.5943 63.5463C48.0277 63.7799 47.4715 63.8517 46.9221 63.7424L45.7139 65.4919L48.4924 67.4107L49.6216 65.7757L47.5537 64.2462L47.7669 63.9375C47.839 64.0042 47.9534 64.0831 48.102 64.1858C48.7995 64.6675 49.4254 64.8127 49.9991 64.6178L50.0342 64.5914Z" fill="#0123FF"/>
<path d="M61.9605 49.6243L62.8158 51.2469L71.4945 46.6724L69.5506 42.9845L67.8788 43.8658L68.7797 45.8728C68.825 45.9589 68.7953 46.0217 68.7092 46.067L65.4763 47.7711C65.3902 47.8165 65.3339 47.799 65.2885 47.713L64.2648 45.7707L66.9815 44.3388L66.2558 42.962L63.5391 44.394L62.606 42.6238L65.8021 40.9391C65.839 40.9197 65.8824 40.9125 65.9199 40.9242C65.9574 40.9358 65.9827 40.9539 66.0021 40.9908L66.9933 42.5732L68.6651 41.692L66.8768 38.2992L58.3579 42.7895L59.2132 44.4121L60.3196 43.829C60.4056 43.7836 60.4619 43.8011 60.5073 43.8871L63.125 48.8534C63.1704 48.9394 63.1529 48.9958 63.0669 49.0411L61.9605 49.6243Z" fill="#0123FF"/>
<path d="M71.8911 38.3258L77.1784 44.866L79.2717 44.359L80.9802 36.1243C81.0011 36.0334 81.0588 35.9766 81.1534 35.9537L82.0312 35.741L81.5994 33.9583L77.2912 35.0019L77.723 36.7846L78.817 36.5196L77.9913 42.024L77.6131 42.1156L74.3872 37.5925L75.5757 37.3047L75.1439 35.522L70.3765 36.6767L70.8083 38.4594L71.6861 38.2468C71.7807 38.2239 71.858 38.2481 71.9181 38.3193L71.8911 38.3258Z" fill="#0123FF"/>
<path d="M84.3278 41.3178L84.3113 43.152L94.1214 43.2399L94.1588 39.0713L92.269 39.0543L92.1104 41.2485C92.1095 41.3458 92.0536 41.387 91.9563 41.3861L88.3018 41.3534C88.2046 41.3525 88.1632 41.3105 88.1641 41.2132L88.1838 39.0177L91.2547 39.0452L91.2686 37.489L88.1977 37.4615L88.2157 35.4605L91.8284 35.4929C91.8701 35.4933 91.9117 35.5075 91.9392 35.5356C91.9668 35.5636 91.9804 35.5915 91.98 35.6332L92.1023 37.4964L93.9921 37.5134L94.0264 33.6783L84.397 33.592L84.3805 35.4262L85.6311 35.4374C85.7284 35.4382 85.7697 35.4803 85.7688 35.5776L85.7185 41.1913C85.7177 41.2885 85.6756 41.3299 85.5783 41.329L84.3278 41.3178Z" fill="#0123FF"/>
<path d="M102.937 45.0836C103.232 45.3225 103.639 45.52 104.162 45.6628C105.127 45.9262 105.885 45.9459 106.423 45.7181C106.96 45.4904 107.338 45.0029 107.547 44.2388L108.023 42.4961L105.395 41.7789L105.058 43.0122C104.993 43.2535 104.905 43.4168 104.795 43.5021C104.685 43.5874 104.523 43.6007 104.322 43.5458C104.161 43.5019 104.042 43.4117 103.964 43.2752C103.886 43.1387 103.826 42.9351 103.789 42.6511L103.487 40.6962L104.372 40.9377C105.511 41.2488 106.37 41.2672 106.949 40.9932C107.528 40.7191 107.924 40.1646 108.148 39.3469C108.363 38.556 108.277 37.8698 107.871 37.2981C107.466 36.7264 106.747 36.2997 105.715 36.0179L98.1941 33.965L97.7111 35.7345L98.9175 36.0639C99.0114 36.0895 99.0406 36.1407 99.015 36.2345L97.5366 41.6503C97.511 41.7441 97.4598 41.7734 97.366 41.7478L96.1595 41.4184L95.6764 43.1879L100.556 44.5199L101.039 42.7504L99.9934 42.465C99.8996 42.4394 99.8703 42.3882 99.896 42.2944L100.438 40.3104L101.55 40.6141C101.657 40.6434 101.71 40.7153 101.724 40.8201L102.013 42.9298C102.086 43.4539 102.184 43.8841 102.322 44.2242C102.46 44.5643 102.669 44.8519 102.964 45.0909L102.937 45.0836ZM104.154 39.7835L100.816 38.8723L101.401 36.7275L104.739 37.6386C105.557 37.8619 105.86 38.3336 105.666 39.0441C105.567 39.406 105.387 39.6449 105.125 39.7606C104.863 39.8763 104.542 39.8896 104.154 39.7835Z" fill="#0123FF"/>
<path d="M110.429 45.9673L109.522 47.5618L114.74 50.5292L115.647 48.9347L114.222 48.1241C114.137 48.076 114.121 48.0192 114.17 47.9346L114.925 46.6059C114.973 46.5213 115.039 46.4626 115.121 46.4297L119.664 44.569C119.747 44.5361 119.84 44.5411 119.924 44.5892L120.698 45.0288L121.604 43.4343L117.787 41.2637L116.88 42.8582L117.774 43.3665L115.142 44.7629L114.779 44.5569L114.634 41.5806L115.527 42.0889L116.434 40.4944L112.122 38.0422L111.215 39.6366L111.988 40.0763C112.073 40.1243 112.125 40.2018 112.139 40.2897L112.85 45.1383C112.864 45.2262 112.847 45.3124 112.799 45.397L112.044 46.7257C111.995 46.8103 111.939 46.8259 111.854 46.7778L110.429 45.9673Z" fill="#0123FF"/>
<path d="M118.626 50.6777L117.366 52.0109L121.043 55.4848C122.033 56.4201 122.935 57.0434 123.75 57.3545C124.565 57.6657 125.342 57.6928 126.082 57.436C126.822 57.1791 127.583 56.6366 128.365 55.8084C129.091 55.0408 129.561 54.2804 129.775 53.5273C129.99 52.7741 129.918 51.9799 129.57 51.1542C129.223 50.3285 128.559 49.4528 127.579 48.5271L123.903 45.0531L122.643 46.3863L123.552 47.2452C123.623 47.312 123.624 47.371 123.558 47.4417L119.702 51.5221C119.635 51.5928 119.576 51.5944 119.505 51.5276L118.626 50.6777ZM122.101 53.9804L121.384 53.3028L125.431 49.0204L126.148 49.698C127.006 50.5092 127.451 51.2732 127.5 51.9894C127.55 52.7056 127.246 53.4121 126.587 54.109C126.1 54.6241 125.628 54.9618 125.171 55.1222C124.713 55.2826 124.231 55.2668 123.735 55.0843C123.238 54.9017 122.696 54.5239 122.101 53.9608L122.101 53.9804Z" fill="#0123FF"/>
<path d="M126.891 58.3552L125.345 59.3409L127.854 63.2784L129.401 62.2927L128.654 61.1208L129.946 60.8738L132.172 64.366L131.402 65.4333L130.655 64.2614L129.108 65.2472L131.827 69.5128L133.373 68.527L132.888 67.7653C132.836 67.6833 132.834 67.6023 132.881 67.5223L137.357 60.4023L135.924 58.1523L127.579 59.202C127.487 59.2117 127.414 59.1755 127.362 59.0935L126.891 58.3552ZM133.157 62.9639L131.603 60.5264L134.893 59.8966L135.117 60.2481L133.157 62.9639Z" fill="#0123FF"/>
<path d="M134.37 71.3194L132.628 71.8932L134.506 77.5949L136.248 77.021L135.735 75.4636C135.705 75.3712 135.731 75.3186 135.824 75.2881L137.276 74.8099C137.368 74.7795 137.456 74.7798 137.539 74.8108L142.156 76.4794C142.24 76.5105 142.305 76.5766 142.336 76.669L142.614 77.5137L144.356 76.9398L142.982 72.7691L141.24 73.343L141.562 74.3197L138.673 73.5888L138.542 73.1929L140.431 70.8882L140.753 71.8648L142.495 71.2909L140.943 66.5792L139.201 67.1531L139.479 67.9977C139.51 68.0901 139.496 68.1824 139.448 68.2569L136.722 72.3296C136.673 72.4041 136.603 72.4566 136.51 72.487L135.059 72.9653C134.966 72.9957 134.914 72.9691 134.883 72.8768L134.37 71.3194Z" fill="#0123FF"/>
</g>
<g clip-path="url(#clip5_82_369)">
<path d="M98.7831 51.7442L98.8892 50.6391L89.3164 49.7196C89.638 49.2748 89.9108 48.8253 90.1658 48.3906L88.8874 48.0381C88.1393 49.5081 86.7865 51.2973 84.9457 52.5311C85.2389 52.7233 85.648 53.0743 85.8669 53.3577C86.9085 52.5884 87.7985 51.6898 88.5439 50.7608L98.7831 51.7442ZM91.4962 59.9838C91.7012 59.2161 91.9055 58.2844 92.1129 57.3202L95.461 57.6418C95.272 58.7554 95.0902 59.6237 94.9256 60.3132L91.4962 59.9838ZM91.0078 57.214C90.8003 58.1783 90.5798 59.1084 90.3748 59.8761L87.1568 59.567C87.3842 58.7359 87.6179 57.8398 87.8547 56.9112L91.0078 57.214ZM91.7297 53.6256C91.5882 54.4157 91.4079 55.2677 91.2261 56.136L88.1218 55.8379C88.3509 54.9905 88.5636 54.1416 88.7554 53.3399L91.7297 53.6256ZM92.3475 56.2437C92.5278 55.3917 92.7096 54.5234 92.8674 53.7349L96.0366 54.0393C95.8973 54.9772 95.769 55.8014 95.6468 56.5606L92.3475 56.2437ZM98.9878 57.9805L99.0924 56.8916L96.817 56.673C96.9663 55.8016 97.1281 54.8002 97.2846 53.6834C97.3002 53.5209 97.3571 53.0999 97.3571 53.0999L87.8005 52.182C87.5659 53.2585 87.2847 54.4781 86.9679 55.727L84.3025 55.471L84.1979 56.56L86.6845 56.7988C86.2234 58.526 85.7507 60.2029 85.3558 61.4115L86.5669 61.6099C86.6616 61.3073 86.7594 60.9722 86.8587 60.6209L94.6275 61.3671C94.4444 61.9072 94.2654 62.2345 94.0872 62.3814C93.8897 62.5592 93.7225 62.5924 93.4137 62.5627C93.0561 62.5284 92.2613 62.4356 91.3427 62.2654C91.4787 62.5573 91.5534 62.9746 91.5447 63.2362C92.4324 63.387 93.3085 63.4876 93.7992 63.5019C94.3402 63.5047 94.7102 63.409 95.0921 63.0192C95.3462 62.7647 95.5865 62.3122 95.8465 61.4842L98.1868 61.709L98.2899 60.6363L96.112 60.4271C96.2782 59.7214 96.4616 58.8368 96.6474 57.7557L98.9878 57.9805Z" fill="#0123FF"/>
<path d="M101.487 63.3338L104.122 59.618L110.728 64.3026L108.093 68.0184L101.487 63.3338ZM113.967 59.7343L111.417 63.3303L104.811 58.6457L107.361 55.0497L113.967 59.7343ZM107.052 53.3691L99.1843 64.4634L100.183 65.1718L100.797 64.3061L107.403 68.9907L106.827 69.8031L107.866 70.5398L115.695 59.4987L107.052 53.3691Z" fill="#0123FF"/>
<path d="M125.074 70.7208L117.634 74.1989C117.413 74.3026 117.319 74.2563 117.18 73.997C117.062 73.7456 116.625 72.8502 116.199 71.8602C115.956 72.1898 115.566 72.5886 115.261 72.7851C115.842 74.0275 116.237 74.8341 116.651 75.2175C117.071 75.6157 117.458 75.6332 118.138 75.3152L125.593 71.8302L125.074 70.7208ZM124.357 74.9312C123.428 76.9154 121.987 79.2295 120.891 80.3547L121.994 81.1726C123.07 79.9665 124.432 77.6358 125.323 75.6871L124.357 74.9312ZM120.805 77.7813C116.446 78.2873 113.357 76.3068 110.243 71.4184C110.08 71.7647 109.724 72.2374 109.447 72.4931C112.842 77.5568 116.206 79.625 120.976 79.0713L120.805 77.7813ZM121.719 68.3242C119.851 68.5307 117.365 68.341 115.499 67.6271C115.505 67.9852 115.388 68.5445 115.298 68.8928C117.245 69.5869 119.876 69.7804 121.983 69.6606L121.719 68.3242Z" fill="#0123FF"/>
<path d="M128.437 89.1473L128.598 87.506C128.118 87.5619 127.529 87.5427 126.928 87.4895C125.22 87.3386 121.119 86.8122 118.712 86.5995C116.061 86.3652 114.943 87.8891 114.736 90.2311C114.42 93.8092 116.284 96.0884 117.73 97.3472L118.917 96.5179C117.329 95.1974 115.802 93.3741 116.065 90.3978C116.202 88.8527 116.935 87.7865 118.725 87.9446C121.148 88.1588 124.976 88.6119 126.807 88.8557C127.342 88.9194 127.907 89.0185 128.437 89.1473Z" fill="#0123FF"/>
<path d="M120.594 112.146L121.44 110.924C121.315 110.877 120.897 110.647 120.53 110.433C120.333 110.316 120.011 110.093 119.626 109.846C120.984 107.827 122.652 105.248 123.667 103.727L122.592 103.042C121.55 104.803 120.073 107.136 118.677 109.208C118.207 108.883 117.715 108.561 117.312 108.282C117.592 108.079 117.85 107.821 118.083 107.485C118.975 106.197 118.722 104.413 117.393 103.492C115.931 102.478 114.408 103.013 113.618 104.153C113.302 104.61 113.153 105.083 113.162 105.586C112.322 104.189 112.435 102.42 113.26 100.37L111.751 100.655C110.52 104.41 111.919 106.691 113.744 107.956C114.415 108.421 115.108 108.682 115.76 108.716C116.4 109.14 117.228 109.694 117.993 110.224C117.946 110.291 117.909 110.345 117.863 110.412C116.496 112.385 115.618 113.565 115.057 114.288L116.055 114.999C116.492 114.368 117.649 112.727 118.793 111.076C118.839 111.009 118.886 110.942 118.932 110.875C119.295 111.126 119.594 111.353 119.795 111.493C119.947 111.618 120.456 112.03 120.594 112.146ZM116.709 104.508C117.582 105.112 117.676 106.151 117.193 106.849C116.83 107.372 116.236 107.656 115.497 107.462C114.161 106.695 113.893 105.734 114.432 104.956C114.944 104.218 115.877 103.931 116.709 104.508ZM119.579 114.184L119.782 113.232C119.08 113.242 118.185 113.158 117.453 113.068L117.258 114.065C117.941 114.141 118.913 114.199 119.579 114.184ZM118.794 116.063L118.993 115.088C118.308 115.13 117.426 115.055 116.68 114.956L116.486 115.953C117.205 116.034 118.124 116.055 118.794 116.063Z" fill="#0123FF"/>
<path d="M110.677 117.266L109.513 116.229C108.574 117.256 105.581 120.654 103.164 121.807C101.175 122.755 99.4488 122.095 98.711 120.547C97.2706 117.526 100.164 114.717 103.976 112.773L102.863 111.803C98.4428 114.218 95.7354 117.607 97.4148 121.129C98.5952 123.605 101.215 124.092 103.662 122.926C105.814 121.9 108.196 119.462 109.259 118.467C109.735 118.023 110.195 117.622 110.677 117.266Z" fill="#0123FF"/>
<path d="M84.4866 123.469L87.3192 123.686L87.189 125.379L84.3564 125.162L84.4866 123.469ZM84.6969 120.734L87.5295 120.951L87.3981 122.661L84.5654 122.443L84.6969 120.734ZM84.9097 117.966L87.7423 118.184L87.6071 119.942L84.7745 119.724L84.9097 117.966ZM88.9958 117.216L79.9445 116.52L79.8631 117.578L83.7539 117.877L83.6187 119.635L80.4442 119.391L80.3666 120.401L83.541 120.645L83.4096 122.354L80.2025 122.107L80.1237 123.133L83.3307 123.38L83.2005 125.073L79.5865 124.795L79.5064 125.837L82.9576 126.102C82.5657 126.727 82.1649 127.466 81.8031 128.126L83.0678 128.501C83.3333 127.818 83.7465 126.916 84.1623 126.195L86.7507 126.394C86.2749 127.045 85.8604 127.75 85.4935 128.475L86.6568 128.892C87.6285 126.903 89.1776 125.074 90.8506 123.974C90.5913 123.725 90.1706 123.234 89.994 122.975C89.4731 123.361 88.9459 123.828 88.4487 124.33L88.9958 117.216ZM90.0141 126.121C90.4574 126.957 91.4956 128.151 92.431 128.976L93.4115 128.363C92.4786 127.506 91.4742 126.299 91.0484 125.447L90.0141 126.121ZM90.7579 122.837L93.9649 123.084L94.0526 121.944L91.9851 121.785L92.3056 117.618C93.0907 116.99 93.9736 116.371 94.6961 115.918L94.1501 114.714C93.2986 115.352 92.4971 115.979 91.727 116.624C90.8153 115.276 89.394 114.594 87.2677 114.348C85.4506 114.127 82.0132 113.895 80.1836 113.836C80.1072 114.191 79.8693 114.729 79.7015 114.995C81.6651 115.015 85.4131 115.254 87.1975 115.473C89.0972 115.684 90.4873 116.348 91.1597 117.612L90.7579 122.837Z" fill="#0123FF"/>
<path d="M72.2686 118.034C73.611 117.428 75.3219 117.093 76.7936 117.108C76.6385 116.785 76.4142 116.158 76.3358 115.867C74.8586 115.947 72.9748 116.361 71.4778 117.02L72.2686 118.034ZM67.6043 112.065C70.3635 110.251 73.5225 110.865 77.9075 113.303C77.8708 112.922 77.9445 112.379 78.0752 112.014C73.3689 109.554 69.888 108.978 66.8178 111.074L67.6043 112.065ZM66.9846 113.698C66.557 112.181 66.2478 110.171 66.3051 109.044L65.0554 109.022C65.011 110.217 65.3796 112.168 65.8391 113.668L66.9846 113.698ZM67.6301 116.866L66.4339 118.619L62.2797 115.785L61.654 116.702L65.8082 119.536L64.7409 121.101L65.7525 121.791L68.6417 117.556L71.1235 119.249L68.952 122.432L69.9501 123.113L72.1216 119.93L74.1043 121.282L74.7392 120.352L69.2766 116.625L71.3745 113.55C71.4941 113.375 71.5756 113.371 71.7871 113.496C72.003 113.643 72.7043 114.121 73.4682 114.682C73.5401 114.316 73.6309 113.864 73.7837 113.553C72.7451 112.845 72.0842 112.394 71.5784 112.266C71.059 112.129 70.7536 112.316 70.3948 112.842L68.2785 115.944L62.8159 112.218L62.181 113.149L67.6301 116.866Z" fill="#0123FF"/>
<path d="M54.4572 107.404L55.1635 108.894C55.5465 108.599 56.0609 108.313 56.6042 108.048C58.1461 107.299 61.9327 105.64 64.106 104.584C66.4996 103.42 66.674 101.538 65.6462 99.4234C64.0758 96.1928 61.3048 95.1979 59.4172 94.8627L58.8255 96.1851C60.8667 96.5001 63.1144 97.2774 64.4206 99.9647C65.0987 101.36 65.0185 102.651 63.4032 103.437C61.2152 104.5 57.6997 106.082 56.0046 106.815C55.5129 107.036 54.9775 107.242 54.4572 107.404Z" fill="#0123FF"/>
<path d="M50.9304 93.1243L52.3577 93.0758C52.1048 91.2907 52.0016 87.1101 51.9268 85.3537C52.7189 86.9143 54.6804 88.6049 57.2214 88.7809C60.8537 89.0324 62.7043 85.7073 63.027 82.7018L61.7077 82.1358C61.4261 84.784 60.211 87.6786 57.0184 87.4575C55.0964 87.3244 52.7187 85.7359 52.1296 83.371C51.9428 82.5234 52.0257 81.0889 52.09 80.1604L50.787 80.0702C50.7603 81.1649 50.7357 82.7016 50.7756 84.4884C50.8124 87.5024 50.9087 90.6023 50.9494 91.669C50.9605 91.9807 50.957 92.5042 50.9304 93.1243Z" fill="#0123FF"/>
<path d="M54.4386 71.5935L53.5332 72.8934C53.9136 73.0292 54.4933 73.3958 54.8059 73.6041C55.5939 74.1292 57.2697 75.2066 58.5333 75.8719C62.2969 77.85 64.398 77.4646 65.2581 76.1738C65.8647 75.2634 65.6289 73.9095 63.8622 71.5551L62.3271 71.7683C63.4505 73.0269 64.4381 74.6071 63.9763 75.3001C63.3335 76.2648 61.3817 75.9256 58.9677 74.631C57.7766 73.9747 56.5311 73.1644 55.6841 72.5804C55.3309 72.345 54.7285 71.8652 54.4386 71.5935ZM59.536 64.768L59.1967 66.0723C61.6555 65.8271 64.9842 66.8679 67.6065 68.262L67.8824 66.8763C65.4503 65.55 61.9179 64.6089 59.536 64.768Z" fill="#0123FF"/>
<path d="M74.1769 52.6217L72.6142 52.1984C72.5778 52.5635 72.4172 53.155 72.2712 53.5932C71.7822 55.0974 70.4391 57.9599 69.804 59.4277C69.0449 61.1949 69.1837 61.9104 71.148 62.3702C73.0684 62.8153 76.2375 63.6035 77.7856 64.1436C78.326 64.3115 78.8444 64.5085 79.3264 64.7056L79.8811 63.2233C77.559 62.4496 73.9299 61.6542 72.0605 61.2382C70.7316 60.9171 70.6293 60.6762 71.133 59.4932C71.7607 58.0474 73.0309 55.3309 73.5856 53.9581C73.7316 53.6295 73.9944 53.0234 74.1769 52.6217Z" fill="#0123FF"/>
</g>
</g>
</g>
<defs>
<clipPath id="clip0_82_369">
<rect width="137.798" height="137.798" fill="white" transform="translate(51.1255) rotate(21.7784)"/>
</clipPath>
<clipPath id="clip1_82_369">
<rect width="8.90815" height="8.90815" fill="white" transform="translate(137.28 79.9874) rotate(21.7784)"/>
</clipPath>
<clipPath id="clip2_82_369">
<rect width="8.90815" height="8.90815" fill="white" transform="translate(52.488 46.1103) rotate(21.7784)"/>
</clipPath>
<clipPath id="clip3_82_369">
<rect width="114.55" height="114.39" fill="white" transform="translate(57.615 15.1245) rotate(21.7784)"/>
</clipPath>
<clipPath id="clip4_82_369">
<rect width="112.484" height="112.321" fill="white" transform="translate(59.5513 15.8981) rotate(22.8421)"/>
</clipPath>
<clipPath id="clip5_82_369">
<rect width="79.5112" height="81.8044" fill="white" transform="translate(68.1089 36.4118) rotate(21.7784)"/>
</clipPath>
</defs>
</svg>
